<svg xmlns="http://www.w3.org/2000/svg" viewBox="0 0 1200 630">
  <defs>
    <linearGradient id="bgGrad" x1="0%" y1="0%" x2="100%" y2="100%">
      <stop offset="0%" style="stop-color:#0274be;stop-opacity:1" />
      <stop offset="100%" style="stop-color:#013052;stop-opacity:1" />
    </linearGradient>
  </defs>

  <!-- Background -->
  <rect width="1200" height="630" fill="url(#bgGrad)"/>

  <!-- Decorative circles -->
  <circle cx="100" cy="100" r="150" fill="#ffffff" opacity="0.05"/>
  <circle cx="1100" cy="530" r="200" fill="#ffffff" opacity="0.05"/>

  <!-- About/Team Icon -->
  <g transform="translate(540, 100) scale(4)">
    <path d="M17 20h5v-2a3 3 0 00-5.356-1.857M17 20H7m10 0v-2c0-.656-.126-1.283-.356-1.857M7 20H2v-2a3 3 0 015.356-1.857M7 20v-2c0-.656.126-1.283.356-1.857m0 0a5.002 5.002 0 019.288 0M15 7a3 3 0 11-6 0 3 3 0 016 0zm6 3a2 2 0 11-4 0 2 2 0 014 0zM7 10a2 2 0 11-4 0 2 2 0 014 0z" stroke="#ffffff" stroke-width="2" fill="none" stroke-linecap="round" stroke-linejoin="round"/>
  </g>

  <!-- Text Content -->
  <text x="600" y="300" font-family="Arial, sans-serif" font-size="56" font-weight="bold" fill="#ffffff" text-anchor="middle">Về TV Legal Count</text>
  <text x="600" y="360" font-family="Arial, sans-serif" font-size="28" fill="#ffffff" text-anchor="middle" opacity="0.9">Đối tác tin cậy của doanh nghiệp</text>

  <!-- Stats badges -->
  <rect x="200" y="410" width="220" height="80" rx="10" fill="#ffffff" opacity="0.15"/>
  <text x="310" y="450" font-family="Arial, sans-serif" font-size="32" fill="#ffffff" text-anchor="middle" font-weight="bold">10+</text>
  <text x="310" y="475" font-family="Arial, sans-serif" font-size="16" fill="#ffffff" text-anchor="middle" opacity="0.9">Năm kinh nghiệm</text>

  <rect x="490" y="410" width="220" height="80" rx="10" fill="#ffffff" opacity="0.15"/>
  <text x="600" y="450" font-family="Arial, sans-serif" font-size="32" fill="#ffffff" text-anchor="middle" font-weight="bold">2.000+</text>
  <text x="600" y="475" font-family="Arial, sans-serif" font-size="16" fill="#ffffff" text-anchor="middle" opacity="0.9">Khách hàng</text>

  <rect x="780" y="410" width="220" height="80" rx="10" fill="#ffffff" opacity="0.15"/>
  <text x="890" y="450" font-family="Arial, sans-serif" font-size="32" fill="#ffffff" text-anchor="middle" font-weight="bold">100%</text>
  <text x="890" y="475" font-family="Arial, sans-serif" font-size="16" fill="#ffffff" text-anchor="middle" opacity="0.9">Chuyên môn</text>
</svg>
