<svg xmlns="http://www.w3.org/2000/svg" viewBox="0 0 1200 630">
  <defs>
    <linearGradient id="bgGrad" x1="0%" y1="0%" x2="100%" y2="100%">
      <stop offset="0%" style="stop-color:#0274be;stop-opacity:1" />
      <stop offset="100%" style="stop-color:#013052;stop-opacity:1" />
    </linearGradient>
  </defs>

  <!-- Background -->
  <rect width="1200" height="630" fill="url(#bgGrad)"/>

  <!-- Decorative circles -->
  <circle cx="100" cy="100" r="150" fill="#ffffff" opacity="0.05"/>
  <circle cx="1100" cy="530" r="200" fill="#ffffff" opacity="0.05"/>

  <!-- Service Icon -->
  <g transform="translate(540, 100) scale(4)">
    <path d="M19 11H5m14 0a2 2 0 012 2v6a2 2 0 01-2 2H5a2 2 0 01-2-2v-6a2 2 0 012-2m14 0V9a2 2 0 00-2-2M5 11V9a2 2 0 012-2m0 0V5a2 2 0 012-2h6a2 2 0 012 2v2M7 7h10" stroke="#ffffff" stroke-width="2" fill="none" stroke-linecap="round" stroke-linejoin="round"/>
  </g>

  <!-- Text Content -->
  <text x="600" y="300" font-family="Arial, sans-serif" font-size="56" font-weight="bold" fill="#ffffff" text-anchor="middle">Dịch vụ của chúng tôi</text>
  <text x="600" y="360" font-family="Arial, sans-serif" font-size="28" fill="#ffffff" text-anchor="middle" opacity="0.9">Giải pháp toàn diện cho doanh nghiệp</text>

  <!-- Service badges -->
  <rect x="150" y="420" width="280" height="70" rx="10" fill="#ffffff" opacity="0.15"/>
  <text x="290" y="465" font-family="Arial, sans-serif" font-size="20" fill="#ffffff" text-anchor="middle">Thành lập doanh nghiệp</text>

  <rect x="460" y="420" width="280" height="70" rx="10" fill="#ffffff" opacity="0.15"/>
  <text x="600" y="465" font-family="Arial, sans-serif" font-size="20" fill="#ffffff" text-anchor="middle">Tư vấn pháp lý</text>

  <rect x="770" y="420" width="280" height="70" rx="10" fill="#ffffff" opacity="0.15"/>
  <text x="910" y="465" font-family="Arial, sans-serif" font-size="20" fill="#ffffff" text-anchor="middle">Kế toán thuế</text>
</svg>
